<svg width="17" height="17" viewBox="0 0 17 17" fill="none" xmlns="http://www.w3.org/2000/svg">
<path d="M0 8.5C3.17948e-07 3.80558 3.80558 5.76746e-07 8.5 3.71547e-07C13.1944 1.66347e-07 17 3.80558 17 8.5C17 13.1944 13.1944 17 8.5 17C3.80558 17 -2.052e-07 13.1944 0 8.5ZM5.70898 5.70898C5.4774 5.94057 5.4774 6.31529 5.70898 6.54688L7.66211 8.5L5.70898 10.4531C5.47739 10.6847 5.4774 11.0594 5.70898 11.291C5.94058 11.5226 6.31529 11.5226 6.54688 11.291L8.5 9.33789L10.4531 11.291C10.6847 11.5226 11.0594 11.5226 11.291 11.291C11.5226 11.0594 11.5226 10.6847 11.291 10.4531L9.33789 8.5L11.291 6.54688C11.5226 6.31529 11.5226 5.94058 11.291 5.70898C11.0594 5.4774 10.6847 5.4774 10.4531 5.70898L8.5 7.66211L6.54688 5.70898C6.31529 5.47739 5.94058 5.4774 5.70898 5.70898Z" fill="#858585"/>
</svg>
