<svg width="40" height="40" viewBox="0 0 40 40" fill="none" xmlns="http://www.w3.org/2000/svg">
<path d="M28.9596 30.9996H28.971H28.997C30.5057 30.9904 33.145 30.0881 34.7596 28.2202C36.0727 26.7006 36.6837 24.4022 36.6837 22.4602V17.5247C36.6837 12.8447 33.8635 9.00003 27.9397 9.00003H8.45093V14.0095H25.7354C28.2329 14.0095 31.2616 14.5028 31.2616 18.4642V24.017C31.2616 27.3375 29.1339 28.1515 26.9751 28.3281H23.6043L28.959 30.9996H28.9596Z" fill="#BCED0A"/>
<path fill-rule="evenodd" clip-rule="evenodd" d="M3.68314 14.129H8.44939V25.8621H3.68314C3.48336 25.8621 3.31874 25.6988 3.31616 25.4983V14.4927C3.31874 14.2925 3.48336 14.129 3.68314 14.129Z" fill="#BCED0A"/>
<path d="M18.7174 25.8668H8.45093V31H18.7174V25.8668Z" fill="#BCED0A"/>
<path fill-rule="evenodd" clip-rule="evenodd" d="M18.7131 25.8668L28.9796 31H27.0796H18.7131V25.8668Z" fill="#81A306"/>
</svg>
