<svg width="24" height="24" viewBox="0 0 24 24" fill="none" xmlns="http://www.w3.org/2000/svg">
<path fill-rule="evenodd" clip-rule="evenodd" d="M15.9861 15.9859C16.2384 15.7336 16.6474 15.7336 16.8996 15.9859L20.311 19.3972C20.5633 19.6495 20.5633 20.0585 20.311 20.3108C20.0587 20.5631 19.6497 20.5631 19.3974 20.3108L15.9861 16.8995C15.7338 16.6472 15.7338 16.2382 15.9861 15.9859Z" fill="#858585"/>
<path fill-rule="evenodd" clip-rule="evenodd" d="M11.0365 4.79197C7.58772 4.79197 4.79197 7.58772 4.79197 11.0365C4.79197 14.4852 7.58772 17.281 11.0365 17.281C14.4852 17.281 17.281 14.4852 17.281 11.0365C17.281 7.58772 14.4852 4.79197 11.0365 4.79197ZM3.5 11.0365C3.5 6.87419 6.87419 3.5 11.0365 3.5C15.1987 3.5 18.5729 6.87419 18.5729 11.0365C18.5729 15.1987 15.1987 18.5729 11.0365 18.5729C6.87419 18.5729 3.5 15.1987 3.5 11.0365Z" fill="#858585"/>
</svg>
